<svg xmlns="http://www.w3.org/2000/svg" width="15.91" height="20" viewBox="0 0 15.91 20">
  <path id="Calculator" d="M17.542,2.29A3.835,3.835,0,0,1,19.91,5.83V18.17A3.84,3.84,0,0,1,16.08,22H7.85A3.84,3.84,0,0,1,4,18.16V5.83A3.84,3.84,0,0,1,7.85,2h8.23A3.8,3.8,0,0,1,17.542,2.29ZM8.556,13.312a1,1,0,1,1,.368-.449A1,1,0,0,1,8.556,13.312ZM12,13.5a1,1,0,1,0-.707-.293A1,1,0,0,0,12,13.5Zm4.632-.168A1,1,0,1,1,17,12.883,1,1,0,0,1,16.632,13.332ZM8,18.69a1,1,0,1,0-.707-.293A1,1,0,0,0,8,18.69Zm4.556-.169a1,1,0,1,1,.368-.449A1,1,0,0,1,12.556,18.521ZM16,18.69a1,1,0,1,0-.707-.293A1,1,0,0,0,16,18.69ZM8.55,5.81h6.9a1.55,1.55,0,1,1,0,3.1H8.55a1.55,1.55,0,1,1,0-3.1Z" transform="translate(-4 -2)" fill="#757b8c" fill-rule="evenodd"/>
</svg>
