<svg xmlns="http://www.w3.org/2000/svg" width="20" height="20" viewBox="0 0 20 20">
  <g id="Candlesticks_Chart_Up" data-name="Candlesticks Chart Up" transform="translate(-1.97 -2.03)">
    <path id="Path_10" data-name="Path 10" d="M6.82,12.49H5.52V9.86a.75.75,0,0,0-1.5,0v2.63H2.72a.755.755,0,0,0-.75.75v5.92a.755.755,0,0,0,.75.75h1.3v1.37a.75.75,0,0,0,1.5,0V19.91h1.3a.755.755,0,0,0,.75-.75V13.24A.755.755,0,0,0,6.82,12.49Z" fill="#757b8c"/>
    <path id="Path_11" data-name="Path 11" d="M13.99,6.74H12.74V3.66a.75.75,0,0,0-1.5,0V6.74H10a.755.755,0,0,0-.75.75v9.62a.755.755,0,0,0,.75.75h1.25v1.37a.75.75,0,0,0,1.5,0V17.86h1.24a.755.755,0,0,0,.75-.75V7.49A.755.755,0,0,0,13.99,6.74Z" fill="#757b8c"/>
    <path id="Path_12" data-name="Path 12" d="M21.22,4.04h-1.3V2.78a.75.75,0,1,0-1.5,0V4.04h-1.3a.755.755,0,0,0-.75.75v9.44a.755.755,0,0,0,.75.75h1.3v2.13a.75.75,0,0,0,1.5,0V14.98h1.3a.755.755,0,0,0,.75-.75V4.79A.755.755,0,0,0,21.22,4.04Z" fill="#757b8c"/>
  </g>
</svg>
