<svg xmlns="http://www.w3.org/2000/svg" width="20" height="20" viewBox="0 0 20 20">
  <g id="Layer_x0020_1" opacity="0.441">
    <path id="Path_8" data-name="Path 8" d="M10,0A10,10,0,1,1,0,10,10,10,0,0,1,10,0Z" fill="#f5ac37"/>
    <path id="Path_9" data-name="Path 9" d="M88.363,104.9h3.8c.081,0,.119,0,.125-.106a7.265,7.265,0,0,0,0-1.162c0-.075-.037-.106-.119-.106H84.607c-.094,0-.119.031-.119.119v1.112c0,.144,0,.144.15.144Zm3.5-2.675a.122.122,0,0,0,0-.087,2.471,2.471,0,0,0-.226-.394,3.188,3.188,0,0,0-.463-.581,1.533,1.533,0,0,0-.288-.281,4.493,4.493,0,0,0-1.875-.95,4.662,4.662,0,0,0-1.062-.113H84.594c-.094,0-.106.037-.106.119v2.219c0,.094,0,.119.119.119h7.212s.063-.013.075-.05h-.031Zm0,3.975a1.459,1.459,0,0,0-.32,0H84.613c-.094,0-.125,0-.125.125v2.169c0,.1,0,.125.125.125h3.2a1.6,1.6,0,0,0,.456-.031,4.764,4.764,0,0,0,1.357-.3,2.483,2.483,0,0,0,.456-.212h.044a4.06,4.06,0,0,0,1.744-1.755s.044-.094-.005-.119Zm-8.632,3.544v-3.456c0-.081,0-.094-.1-.094H81.776c-.075,0-.106,0-.106-.1V104.9h1.45c.081,0,.113,0,.113-.106v-1.175c0-.075,0-.094-.1-.094H81.776c-.075,0-.106,0-.106-.1v-1.1c0-.069,0-.087.1-.087h1.344c.094,0,.119,0,.119-.119V98.755c0-.1,0-.125.125-.125h4.687a7.142,7.142,0,0,1,1.013.113,6.109,6.109,0,0,1,1.956.725,5.513,5.513,0,0,1,1.1.85,6.023,6.023,0,0,1,.669.831,5.013,5.013,0,0,1,.488.956.163.163,0,0,0,.187.131h1.119c.144,0,.144,0,.15.138V103.4c0,.1-.037.125-.138.125h-.863c-.087,0-.112,0-.106.113a6.384,6.384,0,0,1,0,1.143c0,.106,0,.119.119.119h.987c.044.056,0,.113,0,.169a1.262,1.262,0,0,1,0,.218v.756c0,.106-.031.138-.125.138H93.419a.156.156,0,0,0-.181.119,5,5,0,0,1-1.313,1.913,7.528,7.528,0,0,1-.669.537c-.25.144-.494.294-.75.413a6.758,6.758,0,0,1-1.475.468,7.691,7.691,0,0,1-1.463.119H83.231v-.006Z" transform="translate(-77.995 -94.192)" fill="#fefefd"/>
  </g>
</svg>
