<svg xmlns="http://www.w3.org/2000/svg" xmlns:xlink="http://www.w3.org/1999/xlink" width="18" height="13.537" viewBox="0 0 18 13.537">
  <defs>
    <clipPath id="clip-path">
      <rect id="Rectangle_2" data-name="Rectangle 2" width="18" height="13.537" transform="translate(0 11.765)" fill="#757b8c"/>
    </clipPath>
    <clipPath id="clip-path-2">
      <rect id="Rectangle_1" data-name="Rectangle 1" width="70" height="13.537" fill="#fff"/>
    </clipPath>
  </defs>
  <g id="Discord-Logo_Wordmark-White" data-name="Discord-Logo+Wordmark-White" transform="translate(0 -11.765)" opacity="0.4" clip-path="url(#clip-path)">
    <g id="Group_18" data-name="Group 18" transform="translate(0 11.765)" clip-path="url(#clip-path-2)">
      <path id="Path_13" data-name="Path 13" d="M14.814,12.9a14.243,14.243,0,0,0-3.608-1.134,10.579,10.579,0,0,0-.462.96,13.248,13.248,0,0,0-4,0,10.256,10.256,0,0,0-.468-.96A14.2,14.2,0,0,0,2.667,12.9,15.131,15.131,0,0,0,.074,23.033,14.425,14.425,0,0,0,4.5,25.3a11,11,0,0,0,.948-1.561,9.319,9.319,0,0,1-1.492-.726c.125-.093.248-.19.366-.289a10.2,10.2,0,0,0,8.847,0c.12.1.242.2.366.289a9.3,9.3,0,0,1-1.5.728,10.956,10.956,0,0,0,.948,1.561,14.4,14.4,0,0,0,4.428-2.269A15.116,15.116,0,0,0,14.814,12.9ZM5.839,20.993A1.7,1.7,0,0,1,4.267,19.2a1.689,1.689,0,0,1,1.572-1.79A1.678,1.678,0,0,1,7.411,19.2,1.686,1.686,0,0,1,5.839,20.993Zm5.81,0A1.7,1.7,0,0,1,10.077,19.2a1.689,1.689,0,0,1,1.572-1.79,1.678,1.678,0,0,1,1.572,1.79A1.687,1.687,0,0,1,11.649,20.993Z" transform="translate(0 -11.765)" fill="#fff"/>
      <path id="Path_14" data-name="Path 14" d="M98.029,26.171h3.755a5.483,5.483,0,0,1,2.3.433,3.1,3.1,0,0,1,1.406,1.2,3.348,3.348,0,0,1,.467,1.766,3.192,3.192,0,0,1-1.97,3.018,5.865,5.865,0,0,1-2.47.462H98.029Zm3.447,5.133a1.965,1.965,0,0,0,1.406-.466,1.675,1.675,0,0,0,.491-1.274,1.633,1.633,0,0,0-.437-1.194,1.777,1.777,0,0,0-1.323-.448h-1.175V31.3Z" transform="translate(-74.529 -22.717)" fill="#fff"/>
      <path id="Path_15" data-name="Path 15" d="M150.083,35.821a5.032,5.032,0,0,1-1.406-.6V33.588a3.848,3.848,0,0,0,1.267.615,5.3,5.3,0,0,0,1.536.24,1.164,1.164,0,0,0,.524-.093c.118-.062.178-.136.178-.222a.336.336,0,0,0-.1-.246.823.823,0,0,0-.375-.167l-1.155-.266a2.954,2.954,0,0,1-1.41-.655,1.589,1.589,0,0,1-.052-2.089,2.324,2.324,0,0,1,1.04-.653,4.86,4.86,0,0,1,1.579-.232,5.835,5.835,0,0,1,1.483.177,4.069,4.069,0,0,1,1.117.452V32a4.1,4.1,0,0,0-1.045-.438,4.588,4.588,0,0,0-1.219-.162q-.906,0-.9.315a.236.236,0,0,0,.14.221,2.284,2.284,0,0,0,.514.153l.963.177a2.8,2.8,0,0,1,1.406.584,1.579,1.579,0,0,1,.462,1.235,1.641,1.641,0,0,1-.765,1.422,3.8,3.8,0,0,1-2.172.527A6.319,6.319,0,0,1,150.083,35.821Z" transform="translate(-113.035 -25.493)" fill="#fff"/>
      <path id="Path_16" data-name="Path 16" d="M177.7,35.618a2.9,2.9,0,0,1-1.246-1.121,3.082,3.082,0,0,1-.418-1.593,2.844,2.844,0,0,1,1.7-2.679,4.626,4.626,0,0,1,2-.4,4.316,4.316,0,0,1,2.4.62v1.8a2.977,2.977,0,0,0-.784-.384,3.043,3.043,0,0,0-.959-.148,2.514,2.514,0,0,0-1.4.334,1.011,1.011,0,0,0-.506.875,1.023,1.023,0,0,0,.491.871,2.5,2.5,0,0,0,1.425.34,3.272,3.272,0,0,0,.949-.142,3.5,3.5,0,0,0,.8-.35v1.741a4.6,4.6,0,0,1-2.455.649A4.488,4.488,0,0,1,177.7,35.618Z" transform="translate(-133.836 -25.497)" fill="#fff"/>
      <path id="Path_17" data-name="Path 17" d="M206.1,35.61a2.958,2.958,0,0,1-1.71-2.734,2.887,2.887,0,0,1,.439-1.579,2.954,2.954,0,0,1,1.267-1.087,5.149,5.149,0,0,1,3.948,0,2.818,2.818,0,0,1,1.695,2.665,3.043,3.043,0,0,1-.433,1.6,2.976,2.976,0,0,1-1.267,1.131,4.907,4.907,0,0,1-3.938,0Zm2.926-1.745a1.3,1.3,0,0,0,.352-.948,1.258,1.258,0,0,0-.352-.938,1.3,1.3,0,0,0-.957-.35,1.314,1.314,0,0,0-.968.35,1.265,1.265,0,0,0-.351.938,1.225,1.225,0,0,0,1.319,1.308A1.284,1.284,0,0,0,209.021,33.865Z" transform="translate(-155.389 -25.489)" fill="#fff"/>
      <path id="Path_18" data-name="Path 18" d="M243.6,30.591v2.124a1.676,1.676,0,0,0-.953-.246,1.484,1.484,0,0,0-1.184.476,2.218,2.218,0,0,0-.414,1.481v1.81h-2.359V30.483H241v1.829a3.065,3.065,0,0,1,.622-1.481,1.414,1.414,0,0,1,1.1-.476A1.585,1.585,0,0,1,243.6,30.591Z" transform="translate(-181.467 -25.898)" fill="#fff"/>
      <path id="Path_19" data-name="Path 19" d="M268.346,25.35v7.081h-2.359V31.143a2.28,2.28,0,0,1-.909,1.107,2.821,2.821,0,0,1-1.508.378,2.453,2.453,0,0,1-1.4-.4,2.607,2.607,0,0,1-.92-1.092,3.684,3.684,0,0,1-.323-1.569,3.542,3.542,0,0,1,.343-1.623,2.646,2.646,0,0,1,2.451-1.524,2.211,2.211,0,0,1,2.263,1.495V25.35Zm-2.711,5.08a1.252,1.252,0,0,0,.36-.929,1.2,1.2,0,0,0-.351-.895,1.488,1.488,0,0,0-1.911.006,1.214,1.214,0,0,0-.356.909,1.231,1.231,0,0,0,.356.915,1.28,1.28,0,0,0,.944.354A1.307,1.307,0,0,0,265.634,30.43Z" transform="translate(-198.378 -22.093)" fill="#fff"/>
      <path id="Path_20" data-name="Path 20" d="M135.652,26.6a1.083,1.083,0,1,0-1.176-1.079A1.131,1.131,0,0,0,135.652,26.6Z" transform="translate(-102.239 -21.403)" fill="#fff"/>
      <path id="Path_21" data-name="Path 21" d="M134.472,36.543a2.963,2.963,0,0,0,2.352,0v4.428h-2.352Z" transform="translate(-102.236 -30.603)" fill="#fff"/>
    </g>
  </g>
</svg>
