<svg xmlns="http://www.w3.org/2000/svg" xmlns:xlink="http://www.w3.org/1999/xlink" width="30" height="29.646" viewBox="0 0 30 29.646">
  <defs>
    <linearGradient id="linear-gradient" x1="0.93" y1="0.243" x2="0.067" y2="0.747" gradientUnits="objectBoundingBox">
      <stop offset="0.167" stop-color="#439ba7"/>
      <stop offset="1" stop-color="#525188"/>
    </linearGradient>
    <linearGradient id="linear-gradient-2" x1="0.851" y1="0.056" x2="0.064" y2="0.976" xlink:href="#linear-gradient"/>
    <linearGradient id="linear-gradient-3" x1="0.864" y1="0.289" x2="0.04" y2="0.767" xlink:href="#linear-gradient"/>
    <linearGradient id="linear-gradient-4" x1="0.952" y1="0.077" x2="0.145" y2="0.914" xlink:href="#linear-gradient"/>
  </defs>
  <g id="main_x5F_logo" transform="translate(-71.12 -97.42)">
    <g id="Compuneded_x5F_circles" transform="translate(71.12 97.42)">
      <g id="Group_14" data-name="Group 14" transform="translate(0 0)">
        <path id="Path_4" data-name="Path 4" d="M76.636,101.043a1.5,1.5,0,1,0,1.5,1.5A1.5,1.5,0,0,0,76.636,101.043Zm-.162,19.041a1.5,1.5,0,1,0,1.5,1.5A1.5,1.5,0,0,0,76.474,120.084Zm9.584-19.663a1.5,1.5,0,1,0-1.5-1.5A1.5,1.5,0,0,0,86.058,100.42ZM72.62,110.585a1.5,1.5,0,1,0,1.5,1.5A1.5,1.5,0,0,0,72.62,110.585Zm23.142-9.372a1.5,1.5,0,1,0,1.5,1.5A1.5,1.5,0,0,0,95.762,101.213Zm3.857,9.329a1.5,1.5,0,1,0,1.5,1.5A1.5,1.5,0,0,0,99.62,110.543ZM95.762,120a1.5,1.5,0,1,0,1.5,1.5A1.5,1.5,0,0,0,95.762,120Zm-9.619,4.067a1.5,1.5,0,1,0,1.5,1.5A1.5,1.5,0,0,0,86.143,124.066Z" transform="translate(-71.12 -97.42)" fill="url(#linear-gradient)"/>
      </g>
    </g>
    <g id="main_x5F_shapes" transform="translate(73.831 99.841)">
      <g id="Group_15" data-name="Group 15" transform="translate(0 0)">
        <path id="Path_5" data-name="Path 5" d="M155.543,183.4c.475-.1.973-.107,1.446-.214a11.1,11.1,0,0,0-1.362-3.451.738.738,0,0,1,.407-1.025c.222-.081.438-.158.66-.235,2.227-.77,4.322-1.845,4.563-4.474.009-.1.014-.2.018-.32a.738.738,0,0,1,1.1-.617c.373.208.7.4.993.57a4.687,4.687,0,0,0,2.51.97,11.928,11.928,0,0,0,3.929-1.377.743.743,0,0,1,.585-.015.728.728,0,0,1,.41.412c.106.27.209.546.309.814a11.768,11.768,0,0,0,1.316,2.775,2.432,2.432,0,0,0,.206.249c.124.015.247.032.371.05.472.071.939.185,1.411.252.776.111,1.556.192,2.333.3.507.072,1.011.163,1.514.261l.159.032a.044.044,0,0,0,.051-.055.606.606,0,0,0-.524-.425c-1.816-.17-3.527-.376-4.509-1.74a19.319,19.319,0,0,1-1.958-4.305.652.652,0,0,0-.88-.354c-5.459,2.517-5.261,1.923-9.031-.188a.652.652,0,0,0-.97.539c0,.11-.01.22-.02.331-.283,3.08-2.539,4.513-5.641,5.585-.25.086-.493.173-.738.262a.652.652,0,0,0-.36.905c1.062,2.114,1.611,3.3,1.653,4.444A.044.044,0,0,0,155.543,183.4Z" transform="translate(-153.767 -171.207)" fill="url(#linear-gradient-2)"/>
      </g>
      <g id="Group_16" data-name="Group 16" transform="translate(2.241 2.223)">
        <path id="Path_6" data-name="Path 6" d="M236.47,259.08a.275.275,0,0,0,.152-.194q.039-.189.076-.377a6.491,6.491,0,0,1,1.491-3.545,5.68,5.68,0,0,1,3.012-1.378c.309-.072.629-.147.939-.235a.278.278,0,0,0,.185-.171.273.273,0,0,0-.027-.247c-.057-.088-.1-.155-.15-.216-1.329-1.739-1.777-3.105-1.373-4.654a8.539,8.539,0,0,0-1.74.868,1.312,1.312,0,0,1-.953.247.472.472,0,0,1-.416-.5,1.072,1.072,0,0,1,.289-.743,2.578,2.578,0,0,1,1.215-.72,5.112,5.112,0,0,0,.693-.247c.282-.122.355-.373.125-.571a2.824,2.824,0,0,0-.781-.5c-.317-.14-.631-.293-.949-.435a10.264,10.264,0,0,0-1.333-.571,2.552,2.552,0,0,0-1.734.17c-.941.4-1.89.784-2.833,1.183a2.926,2.926,0,0,1-1.32.233.32.32,0,0,1-.157-.034c-.085-.058-.215-.128-.223-.2a.377.377,0,0,1,.146-.283c.293-.214.609-.394.9-.6a10.868,10.868,0,0,1,2.59-1.478c.667-.239,1.338-.465,2.006-.7a4.545,4.545,0,0,1,1.756-.229,12.481,12.481,0,0,1-1.322-2.81c-.1-.265-.2-.54-.306-.805a.274.274,0,0,0-.154-.155.278.278,0,0,0-.221.006,12.15,12.15,0,0,1-4.108,1.419,5.051,5.051,0,0,1-2.755-1.032c-.289-.169-.616-.36-.985-.566a.279.279,0,0,0-.414.233c0,.11-.009.228-.02.345a4.536,4.536,0,0,1-1.55,3.115,9.647,9.647,0,0,1-3.32,1.751c-.219.076-.433.152-.653.232a.276.276,0,0,0-.164.159.273.273,0,0,0,.01.228,11.994,11.994,0,0,1,1.4,3.535,14.248,14.248,0,0,0,1.579-.579c.561-.241,1.087-.564,1.628-.849a.824.824,0,0,1,.77-.026.7.7,0,0,1,.266.449,1.009,1.009,0,0,1-.341.876,2.382,2.382,0,0,1-1.063.656c-.319.106-.632.231-.94.367a.358.358,0,0,0-.106.655l.1.081,1.96.218a1.077,1.077,0,0,0,.792-.208c.357-.264.7-.554,1.072-.789a4.451,4.451,0,0,1,.881-.389c.078-.028.184.023.283.052a.043.043,0,0,1,.03.053.663.663,0,0,1-.1.278c-.373.4-.759.785-1.147,1.171-.112.111-.237.209-.359.311a.044.044,0,0,0,.006.072.513.513,0,0,0,.645-.154c.392-.413.769-.839,1.155-1.257a3.288,3.288,0,0,1,1.153-.845.4.4,0,0,1,.482.112c.129.142.015.279-.061.378-.337.44-.677.879-1.043,1.294-.308.349-.644.674-.985.993a1.194,1.194,0,0,1-.092.078.044.044,0,0,0,.039.078c.054-.017.108-.036.161-.057l.079-.031a.044.044,0,0,0,.016-.011c.14-.154.279-.308.421-.459a10.544,10.544,0,0,1,1.935-1.757,1.389,1.389,0,0,1,1.147-.165c.3.078.364.266.14.479a4.149,4.149,0,0,1-.9.7l-.01.006a.044.044,0,0,0,.037.08l.168-.069a3.989,3.989,0,0,1,1.527-.38c.052,0,.116-.013.153.012a1.186,1.186,0,0,1,.36.295c.025.039-.126.234-.232.307-.463.319-.964.587-1.4.932a9.145,9.145,0,0,1-2.324,1.313,12.52,12.52,0,0,1-3.411.97,9.773,9.773,0,0,1-2.548-.208c-.6-.1-1.185-.248-1.782-.336-.489-.072-.988-.085-1.479-.148a.274.274,0,0,0,.166.149c.318.1.616.2.879.284,1.618.519,2.43.779,3,1.372s.849,1.458,1.405,3.188q.1.316.217.672a.279.279,0,0,0,.388.164c.409-.2.774-.388,1.1-.551a6.735,6.735,0,0,1,2.823-1.05h.082a8.262,8.262,0,0,1,3.133,1.248c.262.136.559.29.878.454h0A.275.275,0,0,0,236.47,259.08Zm-3.349-11.753a1.424,1.424,0,0,1-1.159.175c-.259-.067-.319-.255-.119-.43a4.692,4.692,0,0,1,.884-.66c.815-.427,1.653-.812,2.482-1.213a.983.983,0,0,1,.113-.031c-.093.113-.152.2-.223.269A11.629,11.629,0,0,1,233.121,247.327Zm3.01.043a2.163,2.163,0,0,1-.716.262c-.213.045-.3-.093-.185-.285a2.182,2.182,0,0,1,.346-.451c.339-.332.69-.652,1.081-1.015a.044.044,0,0,0-.027-.076.7.7,0,0,0-.3.012,1.286,1.286,0,0,0-.419.286c-.273.285-.531.585-.784.888a3.518,3.518,0,0,1-1.23.937.409.409,0,0,1-.35-.071c-.055-.044-.056-.221-.014-.306a2.578,2.578,0,0,1,.349-.528c.421-.493.855-.976,1.285-1.463a2.879,2.879,0,0,1,.2-.224,1.649,1.649,0,0,1,1.664-.239,2.27,2.27,0,0,1,.382.145c.679.315,1.36.628,2.034.955a2.174,2.174,0,0,1,.412.3.157.157,0,0,1,.017.252.045.045,0,0,1-.053.011,5.882,5.882,0,0,0-1.94-.426.82.82,0,0,0-.592.187C236.906,246.808,236.534,247.113,236.131,247.37Z" transform="translate(-222.069 -238.964)" fill="url(#linear-gradient-3)"/>
      </g>
      <g id="Group_17" data-name="Group 17" transform="translate(0.072 10.843)">
        <path id="Path_7" data-name="Path 7" d="M180.523,507.613c-.052-.078-.1-.15-.156-.219-1.62-2.12-2.108-3.733-1.509-5.625a.044.044,0,0,0-.048-.057,10.519,10.519,0,0,0-1.173.217q-.141.039-.28.081c-.5,1.537-.114,2.828,1.2,4.553.054.071.106.146.17.244a.738.738,0,0,1-.417,1.111c-.321.092-.647.168-.961.241a5.253,5.253,0,0,0-2.787,1.251,6.146,6.146,0,0,0-1.37,3.316q-.038.189-.077.38a.736.736,0,0,1-1.059.507l-.88-.455a8.149,8.149,0,0,0-2.936-1.2,6.173,6.173,0,0,0-2.682,1c-.322.164-.688.349-1.1.553a.738.738,0,0,1-1.029-.433c-.077-.238-.149-.462-.217-.673a8.127,8.127,0,0,0-1.3-3.01,6.856,6.856,0,0,0-2.812-1.254c-.264-.085-.563-.18-.881-.284a.736.736,0,0,1-.451-.416.745.745,0,0,1-.056-.246c-.445-.077-.887-.165-1.329-.256a.044.044,0,0,0-.048.024c-.1.208-.21.426-.324.655a.652.652,0,0,0,.382.911c5.058,1.65,4.657,1.163,6.34,6.356a.652.652,0,0,0,.91.383c4.951-2.455,4.042-2.552,9.235.117a.652.652,0,0,0,.937-.448c.343-1.669.579-3.252,1.791-4.5,1.234-1.268,2.92-1.383,4.55-1.842A.649.649,0,0,0,180.523,507.613Z" transform="translate(-155.948 -501.712)" fill="url(#linear-gradient-4)"/>
      </g>
    </g>
  </g>
</svg>
