<svg xmlns="http://www.w3.org/2000/svg" xmlns:xlink="http://www.w3.org/1999/xlink" width="20" height="19.764" viewBox="0 0 20 19.764">
  <defs>
    <linearGradient id="linear-gradient" x1="0.93" y1="0.243" x2="0.067" y2="0.747" gradientUnits="objectBoundingBox">
      <stop offset="0.167" stop-color="#439ba7"/>
      <stop offset="1" stop-color="#525188"/>
    </linearGradient>
    <linearGradient id="linear-gradient-2" x1="0.851" y1="0.056" x2="0.064" y2="0.976" xlink:href="#linear-gradient"/>
    <linearGradient id="linear-gradient-3" x1="0.864" y1="0.289" x2="0.04" y2="0.767" xlink:href="#linear-gradient"/>
    <linearGradient id="linear-gradient-4" x1="0.952" y1="0.077" x2="0.145" y2="0.914" xlink:href="#linear-gradient"/>
  </defs>
  <g id="main_x5F_logo" transform="translate(-71.12 -97.42)" opacity="0.397">
    <g id="Compuneded_x5F_circles" transform="translate(71.12 97.42)">
      <g id="Group_14" data-name="Group 14" transform="translate(0 0)">
        <path id="Path_4" data-name="Path 4" d="M74.8,99.835a1,1,0,1,0,1,1A1,1,0,0,0,74.8,99.835Zm-.108,12.694a1,1,0,1,0,1,1A1,1,0,0,0,74.689,112.529ZM81.079,99.42a1,1,0,1,0-1-1A1,1,0,0,0,81.079,99.42ZM72.12,106.2a1,1,0,1,0,1,1A1,1,0,0,0,72.12,106.2Zm15.428-6.248a1,1,0,1,0,1,1A1,1,0,0,0,87.548,99.949Zm2.572,6.219a1,1,0,1,0,1,1A1,1,0,0,0,90.12,106.168Zm-2.572,6.3a1,1,0,1,0,1,1A1,1,0,0,0,87.548,112.472Zm-6.413,2.711a1,1,0,1,0,1,1A1,1,0,0,0,81.136,115.184Z" transform="translate(-71.12 -97.42)" fill="url(#linear-gradient)"/>
      </g>
    </g>
    <g id="main_x5F_shapes" transform="translate(72.928 99.034)">
      <g id="Group_15" data-name="Group 15" transform="translate(0 0)">
        <path id="Path_5" data-name="Path 5" d="M154.951,179.335c.316-.068.649-.072.964-.142a7.4,7.4,0,0,0-.908-2.3.492.492,0,0,1,.271-.683c.148-.054.292-.105.44-.156,1.485-.513,2.881-1.23,3.042-2.983.006-.067.009-.134.012-.213a.492.492,0,0,1,.731-.412c.249.139.468.267.662.38a3.125,3.125,0,0,0,1.673.647,7.952,7.952,0,0,0,2.619-.918.5.5,0,0,1,.39-.01.485.485,0,0,1,.274.275c.071.18.14.364.206.542a7.845,7.845,0,0,0,.877,1.85,1.624,1.624,0,0,0,.137.166c.082.01.165.021.247.033.315.047.626.123.941.168.517.074,1.038.128,1.555.2.338.048.674.109,1.01.174l.106.021a.029.029,0,0,0,.034-.037.4.4,0,0,0-.349-.284c-1.21-.114-2.351-.251-3.006-1.16a12.879,12.879,0,0,1-1.305-2.87.435.435,0,0,0-.587-.236c-3.64,1.678-3.507,1.282-6.021-.126a.434.434,0,0,0-.647.359c0,.073-.007.147-.014.221-.189,2.053-1.693,3.009-3.761,3.723-.166.058-.329.115-.492.175a.435.435,0,0,0-.24.6,7.846,7.846,0,0,1,1.1,2.963A.029.029,0,0,0,154.951,179.335Z" transform="translate(-153.768 -171.207)" fill="url(#linear-gradient-2)"/>
      </g>
      <g id="Group_16" data-name="Group 16" transform="translate(1.494 1.482)">
        <path id="Path_6" data-name="Path 6" d="M231.67,252.374a.184.184,0,0,0,.1-.129q.026-.126.051-.252a4.327,4.327,0,0,1,.994-2.364,3.787,3.787,0,0,1,2.008-.919c.206-.048.419-.1.626-.157a.185.185,0,0,0,.124-.114.182.182,0,0,0-.018-.165c-.038-.059-.069-.1-.1-.144a3.422,3.422,0,0,1-.915-3.1,5.693,5.693,0,0,0-1.16.578.875.875,0,0,1-.635.164.315.315,0,0,1-.277-.331.714.714,0,0,1,.192-.5,1.719,1.719,0,0,1,.81-.48,3.412,3.412,0,0,0,.462-.165c.188-.081.236-.248.084-.381a1.882,1.882,0,0,0-.521-.334c-.211-.094-.421-.2-.633-.29a6.843,6.843,0,0,0-.888-.381,1.7,1.7,0,0,0-1.156.113c-.627.269-1.26.523-1.889.788a1.951,1.951,0,0,1-.88.155.213.213,0,0,1-.1-.023c-.057-.039-.143-.085-.148-.135a.251.251,0,0,1,.1-.189c.2-.142.406-.263.6-.4a7.245,7.245,0,0,1,1.727-.985c.444-.159.892-.31,1.337-.468a3.03,3.03,0,0,1,1.171-.152,8.321,8.321,0,0,1-.881-1.873c-.066-.177-.134-.36-.2-.537a.183.183,0,0,0-.1-.1.185.185,0,0,0-.148,0,8.1,8.1,0,0,1-2.738.946,3.367,3.367,0,0,1-1.837-.688c-.193-.112-.411-.24-.657-.377a.186.186,0,0,0-.276.155c0,.073-.006.152-.013.23a3.024,3.024,0,0,1-1.034,2.077,6.431,6.431,0,0,1-2.213,1.167c-.146.051-.289.1-.435.155a.186.186,0,0,0-.1.258,8,8,0,0,1,.933,2.357,9.5,9.5,0,0,0,1.053-.386c.374-.161.724-.376,1.085-.566a.549.549,0,0,1,.513-.017.466.466,0,0,1,.177.3.673.673,0,0,1-.227.584,1.588,1.588,0,0,1-.708.437c-.212.071-.421.154-.626.245a.239.239,0,0,0-.07.437l.065.054,1.306.146a.718.718,0,0,0,.528-.139c.238-.176.465-.369.715-.526a2.967,2.967,0,0,1,.587-.259c.052-.019.123.015.189.035a.029.029,0,0,1,.02.035.442.442,0,0,1-.068.185c-.249.266-.506.524-.765.781-.075.074-.158.139-.239.207a.03.03,0,0,0,0,.048.342.342,0,0,0,.43-.1c.261-.275.513-.559.77-.838a2.192,2.192,0,0,1,.769-.563.264.264,0,0,1,.321.075c.086.095.01.186-.04.252-.224.293-.451.586-.7.863-.205.233-.429.45-.656.662a.8.8,0,0,1-.061.052.029.029,0,0,0,.026.052c.036-.011.072-.024.107-.038l.053-.021a.029.029,0,0,0,.011-.008c.093-.1.186-.206.281-.306a7.029,7.029,0,0,1,1.29-1.171.926.926,0,0,1,.764-.11c.2.052.243.177.093.319a2.766,2.766,0,0,1-.6.467l-.007,0a.029.029,0,0,0,.025.053l.112-.046a2.659,2.659,0,0,1,1.018-.253c.035,0,.077-.009.1.008a.791.791,0,0,1,.24.2c.017.026-.084.156-.154.2-.309.212-.642.391-.936.622a6.1,6.1,0,0,1-1.549.875,8.346,8.346,0,0,1-2.274.647,6.515,6.515,0,0,1-1.7-.139c-.4-.067-.79-.165-1.188-.224-.326-.048-.659-.056-.986-.1a.183.183,0,0,0,.111.1l.586.189a4.681,4.681,0,0,1,2,.915,5.5,5.5,0,0,1,.937,2.125l.145.448a.186.186,0,0,0,.259.109c.273-.135.516-.258.73-.367a4.49,4.49,0,0,1,1.882-.7h.055a5.508,5.508,0,0,1,2.088.832l.585.3h0A.184.184,0,0,0,231.67,252.374Zm-2.233-7.835a.949.949,0,0,1-.772.116c-.173-.045-.212-.17-.079-.287a3.129,3.129,0,0,1,.589-.44c.543-.285,1.1-.541,1.655-.809a.653.653,0,0,1,.075-.021c-.062.075-.1.132-.149.18A7.753,7.753,0,0,1,229.437,244.539Zm2.007.029a1.442,1.442,0,0,1-.477.175c-.142.03-.2-.062-.123-.19a1.454,1.454,0,0,1,.231-.3c.226-.222.46-.434.72-.676a.029.029,0,0,0-.018-.051.468.468,0,0,0-.2.008.857.857,0,0,0-.279.191c-.182.19-.354.39-.523.592a2.345,2.345,0,0,1-.82.625.272.272,0,0,1-.233-.047c-.037-.029-.037-.148-.009-.2a1.72,1.72,0,0,1,.232-.352c.281-.329.57-.651.856-.975a1.921,1.921,0,0,1,.136-.149,1.1,1.1,0,0,1,1.109-.159,1.515,1.515,0,0,1,.255.1c.453.21.907.419,1.356.637a1.45,1.45,0,0,1,.275.2.1.1,0,0,1,.011.168.03.03,0,0,1-.035.007,3.922,3.922,0,0,0-1.293-.284.546.546,0,0,0-.395.125C231.96,244.193,231.712,244.4,231.444,244.568Z" transform="translate(-222.069 -238.964)" fill="url(#linear-gradient-3)"/>
      </g>
      <g id="Group_17" data-name="Group 17" transform="translate(0.048 7.228)">
        <path id="Path_7" data-name="Path 7" d="M172.331,505.646c-.035-.052-.068-.1-.1-.146-1.08-1.413-1.405-2.489-1.006-3.75a.029.029,0,0,0-.032-.038,7.007,7.007,0,0,0-.782.145l-.187.054c-.336,1.025-.076,1.885.8,3.036.036.047.071.1.114.162a.492.492,0,0,1-.278.741c-.214.061-.431.112-.641.161a3.5,3.5,0,0,0-1.858.834,4.1,4.1,0,0,0-.913,2.211c-.017.084-.034.168-.051.253a.488.488,0,0,1-.269.344.488.488,0,0,1-.437-.006l-.586-.3a5.433,5.433,0,0,0-1.958-.8,4.115,4.115,0,0,0-1.788.666c-.215.109-.459.233-.733.369a.492.492,0,0,1-.686-.289c-.052-.159-.1-.308-.145-.449a5.418,5.418,0,0,0-.865-2.006,4.571,4.571,0,0,0-1.875-.836l-.587-.19a.491.491,0,0,1-.3-.278.5.5,0,0,1-.037-.164c-.3-.052-.591-.11-.886-.17a.029.029,0,0,0-.032.016c-.068.139-.14.284-.216.437a.435.435,0,0,0,.254.607c3.372,1.1,3.1.776,4.227,4.237a.435.435,0,0,0,.607.255c3.3-1.637,2.694-1.7,6.157.078a.435.435,0,0,0,.625-.3,5.521,5.521,0,0,1,1.194-3c.822-.845,1.947-.922,3.033-1.228A.433.433,0,0,0,172.331,505.646Z" transform="translate(-155.948 -501.712)" fill="url(#linear-gradient-4)"/>
      </g>
    </g>
  </g>
</svg>
